<?xml version="1.0" encoding="utf-8"?>
<!-- Generator: Adobe Illustrator 25.2.0, SVG Export Plug-In . SVG Version: 6.00 Build 0)  -->
<svg version="1.1" id="Layer_1" xmlns="http://www.w3.org/2000/svg" xmlns:xlink="http://www.w3.org/1999/xlink" x="0px" y="0px"
	 viewBox="0 0 200 200" style="enable-background:new 0 0 200 200;" xml:space="preserve">
<style type="text/css">
	.st0{fill:#FFFFFF;}
	.st1{fill:#F0E14A;}
	.st2{fill:#062931;}
	.st3{fill:#83D2E4;}
	.st4{fill:#E4A788;}
</style>
<rect class="st0" width="200" height="200"/>
<g>
	<path class="st1" d="M16.6,196.4c-1.1-2.1-1.1-4.3-0.2-6.6c0.8-2,2.1-3.6,3.9-4.8c1.8-1.3,3.8-2,6.2-2.2c2.3-0.2,4.7,0.1,7,1.1
		c2.8,1.1,4.7,2.8,5.7,4.9c1,2.1,1.1,4.3,0.2,6.6c-1.3,3.1-3.5,5.2-6.8,6.4c-3.2,1.2-6.6,1-10.1-0.4
		C19.6,200.1,17.7,198.6,16.6,196.4z M82.6,147.9c2.3,4.1,2.4,8.7,0.4,13.8c-0.6,1.5-1.3,2.9-2.1,4.1c-3.3,5.2-7.8,8.6-13.4,10.1
		c-5.7,1.5-11.6,1.1-17.7-1.3l-4.4,6.1l-16-6.5L39.6,157l6.7,2.7c4.6,1.9,8.4,2.7,11.3,2.6c2.9-0.2,5-1.8,6.2-4.8
		c0.5-1.2,0.5-2.3,0.1-3.3c-0.5-1-1.3-1.7-2.5-2.2c-1.7-0.7-3.3-0.8-4.9-0.1c-1.5,0.6-2.8,1.7-3.7,3.2l-17.1-7
		c2.1-3.6,4.9-6.5,8.4-8.7s7.5-3.4,12-3.7s9.3,0.6,14.4,2.7C76.2,140.6,80.3,143.8,82.6,147.9z"/>
</g>
<g>
	<path class="st2" d="M47.6,58.4c-1.1-2.1-1.1-4.3-0.2-6.6c0.8-2,2.1-3.6,3.9-4.8c1.8-1.3,3.8-2,6.2-2.2c2.3-0.2,4.7,0.1,7,1.1
		c2.8,1.1,4.7,2.8,5.7,4.9c1,2.1,1.1,4.3,0.2,6.6c-1.3,3.1-3.5,5.2-6.8,6.4c-3.2,1.2-6.6,1-10.1-0.4C50.6,62.1,48.7,60.5,47.6,58.4z
		 M113.6,9.9c2.3,4.1,2.4,8.7,0.4,13.8c-0.6,1.5-1.3,2.9-2.1,4.1c-3.3,5.2-7.8,8.6-13.4,10.1c-5.7,1.5-11.6,1.1-17.7-1.3l-4.4,6.1
		l-16-6.5l10.2-17.3l6.7,2.7c4.6,1.9,8.4,2.7,11.3,2.6c2.9-0.2,5-1.8,6.2-4.8c0.5-1.2,0.5-2.3,0.1-3.3c-0.5-1-1.3-1.7-2.5-2.2
		c-1.7-0.7-3.3-0.8-4.9-0.1c-1.5,0.6-2.8,1.7-3.7,3.2l-17.1-7c2.1-3.6,4.9-6.5,8.4-8.7s7.5-3.4,12-3.7s9.3,0.6,14.4,2.7
		C107.2,2.5,111.3,5.8,113.6,9.9z"/>
</g>
<g>
	<path class="st3" d="M162.8,101.4c-2.2-0.8-3.7-2.4-4.6-4.7c-0.8-2-0.9-4.1-0.5-6.2s1.4-4.1,3-5.8c1.5-1.8,3.5-3.1,5.9-4
		c2.8-1.1,5.3-1.2,7.5-0.3c2.2,0.8,3.8,2.4,4.6,4.7c1.2,3.1,1,6.2-0.6,9.3c-1.6,3.1-4.1,5.3-7.7,6.6
		C167.5,102.1,165,102.3,162.8,101.4z M177.9,20.9c4.5,1.4,7.7,4.7,9.7,9.8c0.6,1.6,1,3,1.3,4.4c1.2,6.1,0.2,11.6-2.9,16.5
		c-3.1,5-7.7,8.7-13.8,11.2l0.9,7.5l-16.2,6.2l-4.4-19.6l6.7-2.6c4.7-1.8,8-3.7,10-5.8s2.4-4.7,1.3-7.8c-0.5-1.2-1.2-2.1-2.2-2.5
		s-2.1-0.4-3.4,0.1c-1.7,0.7-3,1.7-3.6,3.2c-0.7,1.5-0.9,3.1-0.5,4.9L143.5,53c-0.9-4.1-0.8-8.1,0.2-12.1c1.1-4,3.1-7.6,6.2-10.9
		c3.1-3.3,7.2-5.9,12.3-7.8C168.2,20,173.5,19.5,177.9,20.9z"/>
</g>
<g>
	<path class="st4" d="M19.2,112.6c-1.3-0.5-2.2-1.4-2.8-2.8c-0.5-1.2-0.5-2.4-0.3-3.7c0.3-1.3,0.9-2.4,1.8-3.5s2.1-1.8,3.5-2.4
		c1.7-0.6,3.2-0.7,4.5-0.2s2.2,1.4,2.8,2.8c0.7,1.9,0.6,3.7-0.4,5.5c-0.9,1.8-2.5,3.1-4.6,3.9C22.1,113,20.6,113.1,19.2,112.6z
		 M28.3,64.6c2.7,0.8,4.6,2.8,5.8,5.9c0.4,0.9,0.6,1.8,0.8,2.6c0.7,3.6,0.1,6.9-1.7,9.9c-1.9,3-4.6,5.2-8.3,6.7l0.5,4.5l-9.6,3.7
		l-2.6-11.7l4-1.5c2.8-1.1,4.8-2.2,6-3.5s1.5-2.8,0.8-4.6c-0.3-0.7-0.7-1.2-1.3-1.5c-0.6-0.2-1.3-0.2-2,0.1c-1,0.4-1.8,1-2.2,1.9
		C18.1,78,18,79,18.2,80L7.7,83.8c-0.5-2.4-0.5-4.8,0.1-7.2c0.6-2.4,1.9-4.5,3.7-6.5s4.3-3.5,7.3-4.7C22.5,64,25.6,63.8,28.3,64.6z"
		/>
</g>
<g>
	<path class="st2" d="M134.2,146.8c-0.2-1.4,0.1-2.6,1-3.8c0.8-1,1.8-1.7,3.1-2.1c1.2-0.4,2.5-0.5,3.9-0.2s2.6,0.9,3.8,1.8
		c1.4,1.1,2.2,2.4,2.4,3.8c0.2,1.4-0.1,2.7-1.1,3.8c-1.3,1.5-2.9,2.4-5,2.5s-4-0.6-5.7-2C135.3,149.4,134.5,148.1,134.2,146.8z
		 M180.4,130.6c0.6,2.7-0.1,5.4-2.2,7.9c-0.6,0.8-1.3,1.4-1.9,2c-2.8,2.4-5.9,3.5-9.4,3.4s-6.8-1.4-9.9-3.8l-3.6,2.7l-8-6.5l8.8-8.1
		l3.3,2.7c2.3,1.9,4.3,3,6,3.4s3.2-0.1,4.4-1.7c0.5-0.6,0.7-1.2,0.6-1.9c-0.1-0.6-0.4-1.2-1.1-1.7c-0.9-0.7-1.8-1-2.7-0.9
		c-1,0.1-1.9,0.5-2.7,1.2l-8.6-7c1.8-1.7,3.9-2.8,6.3-3.5c2.4-0.6,4.9-0.6,7.5,0s5.2,2,7.7,4C178,125.3,179.7,127.8,180.4,130.6z"/>
</g>
<g>
	<path class="st4" d="M122.9,202.3c-1.4,0.2-2.6-0.3-3.7-1.3c-0.9-0.9-1.6-1.9-1.9-3.2s-0.3-2.6,0-3.9c0.4-1.4,1-2.6,2.1-3.7
		c1.2-1.3,2.5-2,3.9-2.2c1.4-0.1,2.6,0.3,3.7,1.3c1.5,1.3,2.2,3.1,2.1,5.1c0,2.1-0.8,3.9-2.4,5.6
		C125.6,201.4,124.2,202.1,122.9,202.3z M109.6,155.3c2.8-0.4,5.4,0.4,7.8,2.7c0.7,0.7,1.3,1.4,1.9,2c2.2,2.9,3.2,6.1,2.8,9.6
		c-0.3,3.5-1.8,6.7-4.4,9.6l2.5,3.7l-7,7.6l-7.5-9.3l2.9-3.2c2-2.2,3.3-4.1,3.8-5.8s0.1-3.2-1.4-4.5c-0.6-0.5-1.2-0.8-1.8-0.7
		c-0.6,0.1-1.2,0.4-1.8,1c-0.8,0.8-1.1,1.7-1.1,2.7s0.4,1.9,1,2.8l-7.5,8.1c-1.6-1.9-2.6-4.1-3.1-6.5s-0.3-4.9,0.4-7.5
		c0.8-2.6,2.3-5.1,4.5-7.5C104.1,157.3,106.8,155.8,109.6,155.3z"/>
</g>
<g>
	<path class="st1" d="M128.2,90.5c-1.4,0.1-2.6-0.3-3.7-1.4c-0.9-0.9-1.5-2-1.8-3.2c-0.3-1.3-0.2-2.6,0.1-3.9
		c0.4-1.3,1.1-2.6,2.2-3.6c1.3-1.3,2.6-2,4-2.1c1.4-0.1,2.6,0.4,3.7,1.4c1.4,1.4,2.1,3.1,2,5.2s-0.9,3.9-2.5,5.5
		C130.9,89.6,129.6,90.3,128.2,90.5z M116.2,43.1c2.8-0.4,5.3,0.6,7.7,2.9c0.7,0.7,1.3,1.4,1.8,2.1c2.1,3,3,6.2,2.6,9.7
		c-0.4,3.5-2,6.6-4.7,9.5l2.4,3.8l-7.2,7.4l-7.3-9.5l3-3.1c2.1-2.1,3.4-4,4-5.7s0.1-3.2-1.3-4.5c-0.6-0.6-1.2-0.8-1.8-0.8
		c-0.6,0-1.2,0.3-1.8,0.9c-0.8,0.8-1.2,1.7-1.2,2.6c0,1,0.3,1.9,0.9,2.8l-7.7,7.9c-1.5-2-2.5-4.2-2.9-6.6s-0.2-4.9,0.7-7.5
		c0.9-2.6,2.4-5,4.7-7.3C110.7,45,113.4,43.4,116.2,43.1z"/>
</g>
<g>
	<path class="st3" d="M60.7,115.8c-0.1-1.4,0.3-2.6,1.3-3.7c0.9-0.9,1.9-1.5,3.2-1.8c1.3-0.3,2.6-0.3,3.9,0.1s2.6,1.1,3.7,2.1
		c1.3,1.2,2,2.6,2.1,4s-0.3,2.6-1.4,3.7c-1.4,1.4-3.1,2.1-5.1,2.1c-2.1-0.1-3.9-0.9-5.5-2.5C61.5,118.5,60.8,117.2,60.7,115.8z
		 M107.9,103.4c0.4,2.8-0.5,5.4-2.8,7.7c-0.7,0.7-1.4,1.3-2.1,1.8c-3,2.2-6.2,3.1-9.6,2.7c-3.5-0.4-6.7-1.9-9.5-4.6l-3.8,2.4
		l-7.5-7.1l9.5-7.4l3.1,3c2.2,2.1,4.1,3.4,5.7,3.9c1.7,0.5,3.2,0.1,4.5-1.3c0.6-0.6,0.8-1.2,0.8-1.8c0-0.6-0.4-1.2-0.9-1.8
		c-0.8-0.8-1.7-1.2-2.7-1.1c-1,0-1.9,0.3-2.8,1l-8-7.6c2-1.5,4.2-2.5,6.6-3c2.4-0.4,4.9-0.3,7.5,0.6c2.6,0.8,5,2.4,7.4,4.6
		C106,97.9,107.5,100.6,107.9,103.4z"/>
</g>
</svg>
