<?xml version="1.0" encoding="utf-8"?>
<!-- Generator: Adobe Illustrator 25.2.0, SVG Export Plug-In . SVG Version: 6.00 Build 0)  -->
<svg version="1.1" id="Layer_1" xmlns="http://www.w3.org/2000/svg" xmlns:xlink="http://www.w3.org/1999/xlink" x="0px" y="0px"
	 viewBox="0 0 350 600" style="enable-background:new 0 0 350 600;" xml:space="preserve">
<style type="text/css">
	.st0{clip-path:url(#SVGID_2_);fill:#EEE;}
</style>
<g>
	<defs>
		<rect id="SVGID_1_" width="350" height="600"/>
	</defs>
	<clipPath id="SVGID_2_">
		<use xlink:href="#SVGID_1_"  style="overflow:visible;"/>
	</clipPath>
	<path class="st0" d="M-1660.7,487.2l63.2,121.8c63.5,123.2,189.5,364.7,262.8,425c72.5,59,92.3-67,106.3-211.2
		c12.9-145.4,21.5-305.7,72.8-321.7c52.1-14,145.5,116.7,245.6,269.2c99.4,150.4,205.2,322.6,234.9,232.5
		c29.8-88.7-14.8-436.4,4.5-562.2C-652,314.9-569,411.1-480,525.4c89.8,115.6,183.1,246.4,240.3,251.2c57,3.4,76.2-122.4,95.6-248.2
		c19.1-125.8,38.7-251.7,95.6-248.2c56.7,5,150.9,135.4,201.4,122c51.8-16.1,60.5-176.5,133.1-118.6
		c72.9,57.8,210.5,341,279.5,479.9l68,140.7L311.8-205l-25.8,7.5c-25.6,7.4-77.3,22.4-128.8,37.3c-51.1,14.8-103,29.9-154.5,44.8
		C-48-100.6-98.9-85.9-150.4-71c-51.8,15-103,29.9-154.5,44.8s-103,29.9-154.5,44.8c-51.2,14.9-103,29.9-154.5,44.8
		c-50.8,14.7-101.6,29.5-153.1,44.4c-51.9,15.1-103,29.9-154.5,44.8c-51.6,15-103,29.9-154.5,44.8c-51.2,14.9-103,29.9-154.5,44.8
		c-51,14.8-103,29.9-153.1,44.4c-52.1,15.1-103,29.9-154.5,44.8c-51.8,15-103,29.9-129.5,37.5l-25.1,7.3L-1660.7,487.2z"/>
</g>
<g>
</g>
<g>
</g>
<g>
</g>
<g>
</g>
<g>
</g>
<g>
</g>
<g>
</g>
<g>
</g>
<g>
</g>
<g>
</g>
<g>
</g>
<g>
</g>
<g>
</g>
<g>
</g>
<g>
</g>
</svg>
