<?xml version="1.0" standalone="no"?><svg xmlns="http://www.w3.org/2000/svg" viewBox="0 0 1440 320"><path fill="#ffffff" fill-opacity="1" d="M0,96L20,128C40,160,80,224,120,208C160,192,200,96,240,90.7C280,85,320,171,360,208C400,245,440,235,480,192C520,149,560,75,600,80C640,85,680,171,720,218.7C760,267,800,277,840,234.7C880,192,920,96,960,53.3C1000,11,1040,21,1080,69.3C1120,117,1160,203,1200,224C1240,245,1280,203,1320,181.3C1360,160,1400,160,1420,160L1440,160L1440,320L1420,320C1400,320,1360,320,1320,320C1280,320,1240,320,1200,320C1160,320,1120,320,1080,320C1040,320,1000,320,960,320C920,320,880,320,840,320C800,320,760,320,720,320C680,320,640,320,600,320C560,320,520,320,480,320C440,320,400,320,360,320C320,320,280,320,240,320C200,320,160,320,120,320C80,320,40,320,20,320L0,320Z"></path></svg>